<svg width="180" height="180" viewBox="0 0 180 180" fill="none" xmlns="http://www.w3.org/2000/svg">
<g id="01" clip-path="url(#clip0_6065_52081)">
<g id="Group">
<path id="Vector" d="M177.69 126.021C179.61 129.259 179.652 133.302 177.803 136.582L156.343 174.635C154.477 177.943 150.957 180 147.157 180H105.687C101.837 180 98.2969 177.905 96.4441 174.53L75.5543 136.501C75.5065 136.585 78.1942 136.598 32.5723 135.756C28.8879 135.689 25.5691 133.755 23.6918 130.591L2.31328 94.5246C0.348047 91.2059 0.348047 87.0855 2.31328 83.7668L23.6602 47.7598C25.548 44.5711 29.025 42.5883 32.734 42.5883C58.1734 42.5925 48.6432 42.5918 74.5102 42.5918L96.4969 5.18203C98.3848 1.98633 101.865 0 105.578 0H147.182C150.95 0 154.455 2.03203 156.333 5.30156L177.771 42.6973C179.638 45.9562 179.624 49.9992 177.736 53.2477C155.433 91.6091 156.38 90.0091 156.336 90.0035L177.69 126.021Z" fill="white"/>
<path id="Vector_2" d="M177.69 126.021L156.336 90H102.428L75.5542 136.501L96.444 174.53C98.2968 177.905 101.837 180 105.687 180H147.157C150.957 180 154.476 177.943 156.343 174.635L177.803 136.582C179.652 133.302 179.61 129.259 177.69 126.021Z" fill="white"/>
<path id="Vector_3" d="M177.803 136.582L156.343 174.635C154.476 177.943 150.957 180 147.157 180H126.074V90H156.336L177.69 126.021C179.61 129.259 179.652 133.302 177.803 136.582Z" fill="#CFCBE4"/>
<path id="Vector_4" d="M137.795 157.148H115.295C112.383 157.148 110.021 154.787 110.021 151.875C110.021 148.963 112.383 146.602 115.295 146.602H137.795C140.707 146.602 143.068 148.963 143.068 151.875C143.068 154.787 140.707 157.148 137.795 157.148Z" fill="#5764FF"/>
<path id="Vector_5" d="M137.795 146.602H126.073V157.148H137.795C140.708 157.148 143.069 154.787 143.069 151.875C143.069 148.963 140.708 146.602 137.795 146.602Z" fill="#4D25DE"/>
<path id="Vector_6" d="M74.5102 42.5918C74.4061 42.5816 67.9113 42.5939 32.734 42.5883C29.025 42.5883 25.548 44.5711 23.6602 47.7598L2.31328 83.7668C0.348047 87.0855 0.348047 91.2058 2.31328 94.5246L23.6918 130.591C25.5691 133.755 28.8879 135.689 32.5723 135.756C59.1005 136.245 48.3282 136.046 75.5262 136.55L102.428 90L74.5102 42.5918Z" fill="white"/>
<path id="Vector_7" d="M102.428 90L75.526 136.55L53.9189 136.15V42.5883H74.4045C74.5652 42.5883 73.1811 40.3355 102.428 90Z" fill="#E2DFF3"/>
<path id="Vector_8" d="M30.9153 95.2745C26.9359 95.2745 24.3119 90.9359 26.3415 87.3837L37.5915 67.6962C39.0367 65.1677 42.2584 64.2895 44.7865 65.7341C47.315 67.179 48.1935 70.4 46.7486 72.9292L35.4986 92.6167C34.5255 94.3196 32.7459 95.2745 30.9153 95.2745Z" fill="#5764FF"/>
<path id="Vector_9" d="M177.736 53.2477C155.345 91.7599 156.388 90.0109 156.322 90H126.074V0H147.182C150.95 0 154.455 2.03203 156.333 5.30156L177.771 42.6973C179.638 45.9562 179.624 49.9992 177.736 53.2477Z" fill="#E2DFF3"/>
<path id="Vector_10" d="M137.795 33.3984H115.295C112.383 33.3984 110.021 31.0373 110.021 28.125C110.021 25.2127 112.383 22.8516 115.295 22.8516H137.795C140.707 22.8516 143.068 25.2127 143.068 28.125C143.068 31.0373 140.707 33.3984 137.795 33.3984Z" fill="#5764FF"/>
<path id="Vector_11" d="M137.795 22.8516H126.073V33.3984H137.795C140.708 33.3984 143.069 31.0373 143.069 28.125C143.069 25.2127 140.708 22.8516 137.795 22.8516Z" fill="#592CFA"/>
</g>
</g>
<defs>
<clipPath id="clip0_6065_52081">
<rect width="180" height="180" fill="white"/>
</clipPath>
</defs>
</svg>
