<svg width="90" height="90" viewBox="0 0 90 90" fill="none" xmlns="http://www.w3.org/2000/svg">
<g id="free-icon-cube-3412242 1" clip-path="url(#clip0_6065_52149)">
<g id="Group">
<g id="Group_2">
<path id="Vector" d="M22.9173 11.1783C22.6505 11.5951 22.5 12.0857 22.5 12.5997V39.5151L45 50.8008L52.0312 11.1783H22.9173Z" fill="#78FF88"/>
<path id="Vector_2" d="M45 50.8008L67.5 39.5153V12.5997C67.5 12.0857 67.3497 11.5951 67.0827 11.1783H45V50.8008Z" fill="#54B860"/>
<path id="Vector_3" d="M45.0002 22.0806L67.0829 11.1783C66.8319 10.7863 66.4778 10.4595 66.0456 10.2428L46.1823 0.279827C45.4384 -0.0933569 44.562 -0.0933569 43.818 0.279827L23.9548 10.2428C23.5225 10.4595 23.1685 10.7863 22.9175 11.1783L45.0002 22.0806Z" fill="#72F081"/>
<path id="Vector_4" d="M67.0827 11.1783C66.8317 10.7863 66.4777 10.4595 66.0454 10.2428L46.1821 0.279844C45.8102 0.0933398 45.4052 0 45 0V22.0806L67.0827 11.1783Z" fill="#5ECF6B"/>
</g>
<g id="Group_3">
<path id="Vector_5" d="M0.417305 50.9048C0.150293 51.3216 0 51.8122 0 52.3262V77.4002C0 78.3977 0.562851 79.3099 1.45459 79.757L21.3179 89.72C21.6898 89.9065 22.0948 89.9998 22.5 89.9998L27.7734 50.9047H0.417305V50.9048Z" fill="#7ED8F7"/>
<path id="Vector_6" d="M22.5 90C22.9052 90 23.3102 89.9067 23.6821 89.7202L45 79.0276V50.6989H22.5V90Z" fill="#4895FF"/>
<path id="Vector_7" d="M22.5002 61.8072L45.0002 50.699L22.5002 39.4135L1.45477 49.9694C1.02252 50.1861 0.668496 50.5129 0.41748 50.9049L22.5002 61.8072Z" fill="#BDFDFF"/>
<path id="Vector_8" d="M45 50.6988L22.5 39.4135V61.8072L45 50.6988Z" fill="#7ED8F7"/>
</g>
<g id="Group_4">
<path id="Vector_9" d="M67.5 90C67.0948 90 66.6898 89.9067 66.3179 89.7202L45 79.0276V50.6989H76.2891L67.5 90Z" fill="#EB1D83"/>
<path id="Vector_10" d="M89.5827 50.9048C89.8495 51.3216 90 51.8122 90 52.3262V77.4002C90 78.3977 89.4371 79.3099 88.5454 79.7571L68.6821 89.72C68.3102 89.9065 67.9052 89.9998 67.5 89.9998V50.9048H89.5827Z" fill="#9D3B6E"/>
<path id="Vector_11" d="M67.5 61.8072L45 50.6988L67.5 39.4133L88.5454 49.9693C88.9777 50.1861 89.3317 50.5129 89.5827 50.9049L67.5 61.8072Z" fill="#F37BB6"/>
<path id="Vector_12" d="M89.5827 50.9049C89.3317 50.5129 88.9777 50.1861 88.5454 49.9694L67.5 39.4135V61.8072L89.5827 50.9049Z" fill="#EB1D83"/>
</g>
</g>
</g>
<defs>
<clipPath id="clip0_6065_52149">
<rect width="90" height="90" fill="white"/>
</clipPath>
</defs>
</svg>
