<svg width="141" height="141" viewBox="0 0 141 141" fill="none" xmlns="http://www.w3.org/2000/svg">
<g id="free-icon-hierarchical-structure-585809 1" clip-path="url(#clip0_6065_52098)">
<path id="Vector" d="M75.3499 50.1728V104.653C75.3499 106.919 73.5135 108.758 71.2446 108.758C68.9783 108.758 67.1392 106.919 67.1392 104.653V50.1728C67.1392 47.9038 68.9783 46.0674 71.2446 46.0674C73.5135 46.0677 75.3499 47.9041 75.3499 50.1728Z" fill="#E2DFF3"/>
<path id="Vector_2" d="M75.3505 50.1729V104.653C75.3505 106.919 73.5141 108.758 71.2451 108.758V46.0678C73.5141 46.0678 75.3505 47.9042 75.3505 50.1729Z" fill="#C9C4E8"/>
<path id="Vector_3" d="M125.325 95.4025V104.653C125.325 106.919 123.489 108.759 121.22 108.759C118.954 108.759 117.114 106.919 117.114 104.653V95.4025C117.114 87.7476 110.888 81.5184 103.23 81.5184H37.6168C29.9619 81.5184 23.7328 87.7476 23.7328 95.4025V104.653C23.7328 106.919 21.8963 108.759 19.6274 108.759C17.3611 108.759 15.522 106.919 15.522 104.653V95.4025C15.522 83.2178 25.4349 73.3076 37.6168 73.3076H103.23C115.415 73.3076 125.325 83.2178 125.325 95.4025Z" fill="#E2DFF3"/>
<path id="Vector_4" d="M125.326 95.4025V104.653C125.326 106.919 123.489 108.759 121.22 108.759C118.954 108.759 117.115 106.919 117.115 104.653V95.4025C117.115 87.7476 110.888 81.5184 103.231 81.5184H71.2451V73.3079H103.231C115.415 73.3076 125.326 83.2178 125.326 95.4025Z" fill="#C9C4E8"/>
<path id="Vector_5" d="M98.5068 16.8078V43.3443C98.5068 49.3736 93.6024 54.278 87.5731 54.278H54.9195C48.8902 54.278 43.9858 49.3736 43.9858 43.3443V16.8078C43.9858 10.7812 48.8902 5.87683 54.9195 5.87683H87.5731C93.6022 5.87683 98.5068 10.7812 98.5068 16.8078Z" fill="#5764FF"/>
<path id="Vector_6" d="M98.5068 16.8078V43.3443C98.5068 49.3736 93.6025 54.278 87.5732 54.278H71.2451V5.87683H87.5732C93.6022 5.87683 98.5068 10.7812 98.5068 16.8078Z" fill="#592CFA"/>
<g id="Group">
<path id="Vector_7" d="M27.9916 100.547H11.2666C5.23809 100.547 0.333984 105.452 0.333984 111.48V124.191C0.333984 130.219 5.23809 135.123 11.2663 135.123H27.9914C34.0193 135.123 38.9234 130.219 38.9234 124.191V111.48C38.9237 105.452 34.0196 100.547 27.9916 100.547Z" fill="#5764FF"/>
<path id="Vector_8" d="M90.5394 111.479V124.191C90.5394 130.218 85.635 135.122 79.6085 135.122H62.8834C56.8541 135.122 51.9497 130.218 51.9497 124.191V111.479C51.9497 105.452 56.8541 100.548 62.8834 100.548H79.6085C85.635 100.548 90.5394 105.452 90.5394 111.479Z" fill="#5764FF"/>
</g>
<g id="Group_2">
<path id="Vector_9" d="M129.401 100.547H112.676C106.648 100.547 101.744 105.452 101.744 111.48V124.191C101.744 130.219 106.648 135.123 112.676 135.123H129.401C135.429 135.123 140.334 130.219 140.334 124.191V111.48C140.334 105.452 135.429 100.547 129.401 100.547Z" fill="#4C00FF"/>
<path id="Vector_10" d="M90.54 111.479V124.191C90.54 130.218 85.6356 135.122 79.609 135.122H71.2451V100.548H79.609C85.6356 100.548 90.54 105.452 90.54 111.479Z" fill="#4C00FF"/>
</g>
</g>
<defs>
<clipPath id="clip0_6065_52098">
<rect width="140" height="140" fill="white" transform="translate(0.333496 0.5)"/>
</clipPath>
</defs>
</svg>
