<svg width="141" height="141" viewBox="0 0 141 141" fill="none" xmlns="http://www.w3.org/2000/svg">
<g id="02" clip-path="url(#clip0_6065_52132)">
<g id="Group">
<path id="Vector" d="M0.333496 29.4844V136.398C0.333496 138.664 2.1699 140.5 4.43506 140.5H136.232C138.497 140.5 140.333 138.664 140.333 136.398V29.4844L70.3335 26.75L0.333496 29.4844Z" fill="white"/>
<path id="Vector_2" d="M140.333 29.4844V136.398C140.333 138.662 138.496 140.5 136.232 140.5H70.3335V26.75L140.333 29.4844Z" fill="#EBEEFD"/>
<path id="Vector_3" d="M140.333 4.60156C140.333 2.33641 138.497 0.5 136.232 0.5H4.43506C2.1699 0.5 0.333496 2.33641 0.333496 4.60156V29.4844H140.333V4.60156Z" fill="#5764FF"/>
<path id="Vector_4" d="M140.333 4.60156V29.4844H70.3335V0.5H136.232C138.496 0.5 140.333 2.3375 140.333 4.60156Z" fill="#2D36A0"/>
<path id="Vector_5" d="M99.4546 52.2935H41.7593C32.7881 52.2935 25.4897 59.5918 25.4897 68.563C25.4897 77.5342 32.7881 84.8325 41.7593 84.8325H99.4546C108.426 84.8325 115.724 77.5342 115.724 68.563C115.724 59.5918 108.426 52.2935 99.4546 52.2935Z" fill="#5764FF"/>
<path id="Vector_6" d="M115.724 68.5641C115.724 77.5328 108.426 84.8336 99.4546 84.8336H70.3335V52.2946H99.4546C108.426 52.2946 115.724 59.5926 115.724 68.5641Z" fill="#2D36A0"/>
<path id="Vector_7" d="M99.4546 76.6294H41.7593C37.3113 76.6294 33.6929 73.011 33.6929 68.563C33.6929 64.115 37.3113 60.4966 41.7593 60.4966H99.4546C103.903 60.4966 107.521 64.115 107.521 68.563C107.521 73.011 103.903 76.6294 99.4546 76.6294Z" fill="white"/>
<path id="Vector_8" d="M107.521 68.5641C107.521 73.0102 103.903 76.6305 99.4546 76.6305H70.3335V60.4977H99.4546C103.903 60.4977 107.521 64.1153 107.521 68.5641Z" fill="#C1BAE8"/>
<path id="Vector_9" d="M108.145 95.8737L85.1758 70.4311C82.6646 67.6489 78.0298 69.4336 78.0298 73.1797V107.456C78.0298 110.33 80.9186 112.318 83.6038 111.285L91.2601 108.34L93.8449 115.061C94.657 117.173 97.0288 118.231 99.1454 117.416C101.26 116.603 102.314 114.23 101.501 112.116L98.9163 105.395L106.573 102.45C109.249 101.421 110.078 98.0155 108.145 95.8737Z" fill="#2D36A0"/>
<path id="Vector_10" d="M125.568 19.0938C127.833 19.0938 129.669 17.2574 129.669 14.9922C129.669 12.727 127.833 10.8906 125.568 10.8906C123.303 10.8906 121.466 12.727 121.466 14.9922C121.466 17.2574 123.303 19.0938 125.568 19.0938Z" fill="#E63950"/>
<path id="Vector_11" d="M109.162 19.0938C111.427 19.0938 113.263 17.2574 113.263 14.9922C113.263 12.727 111.427 10.8906 109.162 10.8906C106.896 10.8906 105.06 12.727 105.06 14.9922C105.06 17.2574 106.896 19.0938 109.162 19.0938Z" fill="#FFDA2D"/>
<path id="Vector_12" d="M92.7554 19.0938C95.0206 19.0938 96.8569 17.2574 96.8569 14.9922C96.8569 12.727 95.0206 10.8906 92.7554 10.8906C90.4901 10.8906 88.6538 12.727 88.6538 14.9922C88.6538 17.2574 90.4901 19.0938 92.7554 19.0938Z" fill="#32FCA5"/>
</g>
</g>
<defs>
<clipPath id="clip0_6065_52132">
<rect width="140" height="140" fill="white" transform="translate(0.333496 0.5)"/>
</clipPath>
</defs>
</svg>
