<svg width="127" height="133" viewBox="0 0 127 133" fill="none" xmlns="http://www.w3.org/2000/svg">
<g id="&#208;&#173;&#208;&#187;&#208;&#184;&#208;&#191;&#209;&#129;-05">
<g id="Group">
<path id="Vector" d="M42.8862 65.8999V66.1587C42.8862 66.3894 42.8862 66.5581 42.8581 66.6707H30.2954C30.4079 69.5005 32.692 71.7227 35.6344 71.7227C37.4347 71.7227 39.0325 70.9239 40.062 69.6693H42.2899C40.9453 71.9815 38.408 73.4668 35.6625 73.4668C31.5781 73.4668 28.3825 70.1531 28.3825 66.1306C28.3263 62.1586 31.6118 58.6481 35.6344 58.7324C39.4882 58.7324 42.7737 61.6748 42.8862 65.8999ZM40.9453 65.1291C40.7146 63.7845 40.1183 62.7044 39.145 61.8155C38.1717 60.9322 37.0015 60.4709 35.6625 60.4709C34.3235 60.4709 33.1196 60.9266 32.1238 61.8155C31.1224 62.6987 30.526 63.8127 30.2954 65.1291H40.9453Z" fill="white"/>
<path id="Vector_2" d="M44.4561 73.2368V53.2478H46.2845V73.2368H44.4561Z" fill="white"/>
<path id="Vector_3" d="M48.5684 73.2368V53.2478H50.3968V73.2368H48.5684Z" fill="white"/>
<path id="Vector_4" d="M53.8513 54.1599C54.5096 54.1599 55.0215 54.6437 55.0215 55.302C55.0215 55.9602 54.5096 56.4722 53.8513 56.4722C53.1931 56.4722 52.6812 55.9883 52.6812 55.302C52.6812 54.6156 53.1931 54.1599 53.8513 54.1599ZM52.9399 58.9588H54.7684V73.2375H52.9399V58.9588Z" fill="white"/>
<path id="Vector_5" d="M71.438 66.0968C71.4942 70.0687 68.0118 73.5512 64.068 73.4668C61.7557 73.4668 59.7248 72.2685 58.5546 70.4119V78.9521H56.7261V66.1024C56.6417 62.1305 60.0961 58.6481 64.0624 58.7325C68.0005 58.6481 71.4886 62.1305 71.4323 66.1024L71.438 66.0968ZM64.068 60.4709C60.9287 60.4709 58.5264 62.9575 58.5264 66.0968C58.5264 69.2361 60.9512 71.7228 64.068 71.7228C67.1847 71.7228 69.6095 69.1798 69.6095 66.0968C69.6095 63.0138 67.1847 60.4709 64.068 60.4709Z" fill="white"/>
<path id="Vector_6" d="M74.4929 69.2977C74.4929 70.8673 75.8937 71.8406 77.7503 71.8406C79.7756 71.8406 80.9177 70.9292 80.9177 69.354C80.9177 68.752 80.7489 68.2963 80.4339 67.9531C79.7756 67.2386 78.9767 66.9517 77.379 66.5241C76.4338 66.2653 75.6968 66.0403 75.0949 65.7815C73.9247 65.2977 73.0076 64.2681 73.0076 62.4678C73.0076 61.3539 73.4352 60.4425 74.3185 59.7561C75.2017 59.0697 76.3157 58.7266 77.6322 58.7266C80.2876 58.7266 82.2567 60.2118 82.2567 62.6085H80.4845C80.4845 61.2076 79.258 60.3525 77.6265 60.3525C75.995 60.3525 74.8304 61.2076 74.8304 62.5803C74.9429 64.2625 76.0006 64.5213 78.1722 65.0951C79.1737 65.3539 79.9444 65.6352 80.5408 65.894C81.7672 66.3778 82.7405 67.4636 82.7405 69.4327C82.7405 71.9757 80.7152 73.4609 77.7165 73.4609C75.033 73.4609 72.7207 71.8631 72.7207 69.2921H74.4929V69.2977Z" fill="white"/>
<path id="Vector_7" d="M84.0288 66.2935V66.0347C84.0288 65.804 84.0288 65.6352 84.0569 65.5227H96.6197C96.5071 62.6929 94.223 60.4706 91.2806 60.4706C89.4803 60.4706 87.8826 61.2695 86.853 62.5241H84.6252C85.9698 60.2118 88.5071 58.7266 91.2525 58.7266C95.3369 58.7266 98.5325 62.0402 98.5325 66.0628C98.5887 70.0347 95.3032 73.5453 91.2806 73.4609C87.4269 73.4609 84.1413 70.5185 84.0288 66.2935ZM85.9698 67.0642C86.2004 68.4088 86.7968 69.489 87.7701 70.3779C88.7433 71.2612 89.9135 71.7225 91.2525 71.7225C92.5915 71.7225 93.7954 71.2668 94.7912 70.3779C95.7927 69.4946 96.389 68.3807 96.6197 67.0642H85.9698Z" fill="white"/>
</g>
<path id="Vector_8" opacity="0.6" d="M90.375 16.8398C105.284 33.0144 109.588 55.4451 103.287 75.2315C115.095 55.7601 116.654 35.1692 105.52 24.0354C101.526 20.041 96.316 17.6837 90.3806 16.8455L90.375 16.8398Z" fill="url(#paint0_linear_5927_44938)"/>
<path id="Vector_9" opacity="0.6" d="M47.6855 12.2531C69.6661 13.1477 88.5693 25.9635 98.1052 44.411C92.6875 22.2954 79.2246 6.63281 63.4776 6.63281C57.8291 6.63281 52.4788 8.65253 47.6855 12.2531Z" fill="url(#paint1_linear_5927_44938)"/>
<path id="Vector_10" opacity="0.6" d="M14.2056 39.1903C30.3801 24.2816 52.8108 19.9777 72.5972 26.2788C53.1258 14.47 32.5349 12.9116 21.4011 24.0453C17.4067 28.0397 15.0495 33.2493 14.2112 39.1847L14.2056 39.1903Z" fill="url(#paint2_linear_5927_44938)"/>
<path id="Vector_11" opacity="0.6" d="M9.58662 81.8806C10.4811 59.9001 23.297 40.9969 41.7445 31.4609C19.6289 36.8843 3.96631 50.3416 3.96631 66.0886C3.96631 71.7371 5.98602 77.0873 9.58662 81.8806Z" fill="url(#paint3_linear_5927_44938)"/>
<path id="Vector_12" opacity="0.6" d="M36.5629 115.384C21.6542 99.2092 17.3503 76.7786 23.6514 56.9922C11.8425 76.4636 10.2841 97.0545 21.4179 108.188C25.4123 112.183 30.6219 114.54 36.5573 115.378L36.5629 115.384Z" fill="url(#paint4_linear_5927_44938)"/>
<path id="Vector_13" opacity="0.6" d="M79.2302 119.943C57.2497 119.049 38.3465 106.233 28.8105 87.7852C34.2283 109.901 47.6912 125.563 63.4382 125.563C69.0867 125.563 74.4369 123.544 79.2302 119.943Z" fill="url(#paint5_linear_5927_44938)"/>
<path id="Vector_14" opacity="0.6" d="M112.705 93.0195C96.5301 107.928 74.0994 112.232 54.313 105.931C73.7844 117.74 94.3753 119.298 105.509 108.165C109.503 104.17 111.861 98.9605 112.699 93.0252L112.705 93.0195Z" fill="url(#paint6_linear_5927_44938)"/>
<path id="Vector_15" opacity="0.6" d="M117.413 50.4531C116.519 72.4337 103.703 91.3368 85.2554 100.873C107.371 95.455 123.034 81.9922 123.034 66.2451C123.034 60.5967 121.014 55.2464 117.413 50.4531Z" fill="url(#paint7_linear_5927_44938)"/>
</g>
<defs>
<linearGradient id="paint0_linear_5927_44938" x1="116.477" y1="61.7078" x2="81.9107" y2="27.1418" gradientUnits="userSpaceOnUse">
<stop offset="0.08" stop-color="#B377F8"/>
<stop offset="1" stop-color="#FF006A" stop-opacity="0"/>
</linearGradient>
<linearGradient id="paint1_linear_5927_44938" x1="97.8746" y1="25.5191" x2="48.9908" y2="25.5191" gradientUnits="userSpaceOnUse">
<stop offset="0.08" stop-color="#FF79A9"/>
<stop offset="1" stop-color="#FF8300" stop-opacity="0"/>
</linearGradient>
<linearGradient id="paint2_linear_5927_44938" x1="59.0787" y1="13.0784" x2="24.5126" y2="47.6444" gradientUnits="userSpaceOnUse">
<stop offset="0.08" stop-color="#6EF4E8"/>
<stop offset="1" stop-color="#446AFF" stop-opacity="0"/>
</linearGradient>
<linearGradient id="paint3_linear_5927_44938" x1="22.8582" y1="31.6916" x2="22.8582" y2="80.5754" gradientUnits="userSpaceOnUse">
<stop offset="0.08" stop-color="#68E7AB"/>
<stop offset="1" stop-color="#FFF642" stop-opacity="0"/>
</linearGradient>
<linearGradient id="paint4_linear_5927_44938" x1="10.4569" y1="70.5167" x2="45.0229" y2="105.083" gradientUnits="userSpaceOnUse">
<stop offset="0.08" stop-color="#B377F8"/>
<stop offset="1" stop-color="#FF006A" stop-opacity="0"/>
</linearGradient>
<linearGradient id="paint5_linear_5927_44938" x1="29.0412" y1="106.671" x2="77.9306" y2="106.671" gradientUnits="userSpaceOnUse">
<stop offset="0.08" stop-color="#FF79A9"/>
<stop offset="1" stop-color="#FF8300" stop-opacity="0"/>
</linearGradient>
<linearGradient id="paint6_linear_5927_44938" x1="67.8336" y1="119.127" x2="102.4" y2="84.5608" gradientUnits="userSpaceOnUse">
<stop offset="0.08" stop-color="#6EF4E8"/>
<stop offset="1" stop-color="#446AFF" stop-opacity="0"/>
</linearGradient>
<linearGradient id="paint7_linear_5927_44938" x1="104.142" y1="100.642" x2="104.142" y2="51.7583" gradientUnits="userSpaceOnUse">
<stop offset="0.08" stop-color="#68E7AB"/>
<stop offset="1" stop-color="#FFF642" stop-opacity="0"/>
</linearGradient>
</defs>
</svg>
